# xmcd
#
# Track frame offsets:
#	150
#	14730
#	31019
#	47178
#	66759
#	81274
#	95659
#	108494
#	119235
#	134653
#	149303
#	164106
#	176531
#	189944
#	204489
#	222910
#	241334
#	257002
#	270615
#	282050
#	295727
#	308690
#	326470
#	342311
#
# Disc length: 4744 seconds
#
# Revision: 0
# Processed by: cddbd v1.5.2PL0 Copyright (c) Steve Scherf et al.
# Submitted via: EasyCDDAExtractor 2010.6.0.0
#
DISCID=74128618
DTITLE=Various Artist - Country Hits, Vol. 36
DYEAR=2010
DGENRE=Country
TTITLE0=Billy Currington - I Got A Feelin
TTITLE1=Blake Shelton - The More I Drink
TTITLE2=Gary Allan - Don't Leave Her Lonely Too Long
TTITLE3=Zac Brown Band - Toes
TTITLE4=Billy Currington - Where The Girls Are
TTITLE5=Billy Currington - I Shall Return
TTITLE6=Wanda Jackson - It Happens Every Time
TTITLE7=Whiskeytown - Crazy Lonesome (aka A Memory Away)
TTITLE8=Blake Shelton - I Drink
TTITLE9=Terri Clark - Me Not Loving You
TTITLE10=Toby Keith - Hell No
TTITLE11=Sammy Kershaw - Here She Comes
TTITLE12=Gary Allan - Guys Like Me
TTITLE13=Terri Clark - One Of The Guys
TTITLE14=Slim Dusty - Something In THe Pilliga
TTITLE15=Trisha Yearwood - She's In Love With The Boy
TTITLE16=Wenche - Eyes Of The Past
TTITLE17=The Woolpackers - Hillbilly Rock Hillbilly Roll-'97 Remix
TTITLE18=Garth Brooks - Two Of A Kind, Workin' On A Full House
TTITLE19=The Statler Brothers - Let's Get Started If We're Gonna Break My Hear
TTITLE19=t
TTITLE20=George Jones - Same Ole Me With The Oak Ridge Boys
TTITLE21=Zac Brown Band - Chicken Fried
TTITLE22=Whiskeytown - Kiss and Make-Up
TTITLE23=Gary Allan - I Don't Look Back
EXTD=
EXTT0=
EXTT1=
EXTT2=
EXTT3=
EXTT4=
EXTT5=
EXTT6=
EXTT7=
EXTT8=
EXTT9=
EXTT10=
EXTT11=
EXTT12=
EXTT13=
EXTT14=
EXTT15=
EXTT16=
EXTT17=
EXTT18=
EXTT19=
EXTT20=
EXTT21=
EXTT22=
EXTT23=
PLAYORDER=
